# xmcd CD database file
#
# Track frame offsets:
#	150
#	19446
#	36132
#	53732
#	69991
#	86295
#	103285
#	121578
#	137841
#	154195
#	175403
#	191074
#	207202
#
# Disc length: 2970 seconds
#
# Revision: 2
# Processed by: cddbd v1.4b41PL1 Copyright (c) Steve Scherf et al.
# Submitted via: Feurio! 1.52 - http://www.feurio.com
#
DISCID=b10b980d
DTITLE=Vanessa Amorosi - The Power
DYEAR=1900
DGENRE=
TTITLE0=U R Mine
TTITLE1=Absolutely Everybody
TTITLE2=Shine
TTITLE3=Have A Look
TTITLE4=Pray For Love
TTITLE5=Every Time I Close My Eyes
TTITLE6=How Y' Livin'
TTITLE7=The Power
TTITLE8=I Wanna Be Everything
TTITLE9=You Were Led On
TTITLE10=Pray For Love (Club Mix)
TTITLE11=The Power (Spiced Mix)
TTITLE12=Absolutely Everybody (Latino Mix)
EXTD=
EXTT0=(c) MaKueh Records
EXTT1=(c) MaKueh Records
EXTT2=(c) MaKueh Records
EXTT3=(c) MaKueh Records
EXTT4=(c) MaKueh Records
EXTT5=(c) MaKueh Records
EXTT6=(c) MaKueh Records
EXTT7=(c) MaKueh Records
EXTT8=(c) MaKueh Records
EXTT9=(c) MaKueh Records
EXTT10=(c) MaKueh Records
EXTT11=(c) MaKueh Records
EXTT12=(c) MaKueh Records
PLAYORDER=
